<?xml version="1.0" encoding="UTF-8"?>
<svg xmlns="http://www.w3.org/2000/svg" width="256" height="256" viewBox="0 0 256 256" role="img" aria-label="App logo">
  <!-- Stylized moon icon as safe placeholder -->
  <defs>
    <radialGradient id="g1" cx="30%" cy="30%">
      <stop offset="0%" stop-color="#fff6e6" />
      <stop offset="60%" stop-color="#ffd6e6" />
      <stop offset="100%" stop-color="#e0f7fa" />
    </radialGradient>
  </defs>
  <rect width="100%" height="100%" rx="28" ry="28" fill="#0b1130" />
  <g transform="translate(20,16)">
    <circle cx="108" cy="96" r="72" fill="url(#g1)" stroke="#fff" stroke-opacity="0.06" stroke-width="1" />
    <g transform="translate(76,58)" fill="#0b0b1a" opacity="0.06">
      <circle cx="-4" cy="-6" r="8" />
      <circle cx="18" cy="-18" r="10" />
      <circle cx="36" cy="-2" r="6" />
    </g>
    <!-- sunglasses -->
    <g transform="translate(64,86)">
      <rect x="0" y="-6" width="36" height="18" rx="4" fill="#0a0a0a" />
      <rect x="46" y="-6" width="36" height="18" rx="4" fill="#0a0a0a" />
      <rect x="36" y="-2" width="14" height="6" fill="#0a0a0a" />
    </g>
    <!-- smile -->
    <path d="M76 118 q12 12 28 0" stroke="#1b1b35" stroke-width="3" fill="none" stroke-linecap="round" />
    <!-- small stars -->
    <g stroke="#ffffff" stroke-opacity="0.6" stroke-width="0.8">
      <path d="M34 22 l2 6 l6 2 l-6 2 l-2 6 l-2 -6 l-6 -2 l6 -2 z" fill="#fff" opacity="0.07" />
      <path d="M184 16 l2 4 l4 2 l-4 2 l-2 4 l-2 -4 l-4 -2 l4 -2 z" fill="#fff" opacity="0.06" />
    </g>
  </g>
  <g transform="translate(0,216)">
    <text x="50%" y="0" font-family="Poppins, Arial, sans-serif" font-weight="700" font-size="18" text-anchor="middle" fill="#ffffff" opacity="0.9">Speechify TTS</text>
  </g>
</svg>
